HIERARCHY
ROOT root
{
	OFFSET	0	13.1	24.9
	CHANNELS 6  Xposition Yposition Zposition Xrotation Yrotation Zrotation
	JOINT spine_1
	{
		OFFSET	0	9.99999	0
		CHANNELS 3  Xrotation Yrotation Zrotation
		JOINT spine_2
		{
			OFFSET	0	112	-10
			CHANNELS 3  Xrotation Yrotation Zrotation
			JOINT spine_3
			{
				OFFSET	0	206.5	19.3
				CHANNELS 3  Xrotation Yrotation Zrotation
				JOINT spine_4
				{
					OFFSET	0	110.4	14.6
					CHANNELS 3  Xrotation Yrotation Zrotation
					JOINT neck_1
					{
						OFFSET	0	71.8	-50.3
						CHANNELS 3  Xrotation Yrotation Zrotation
						JOINT neck_2
						{
							OFFSET	0	86.2	-25.8
							CHANNELS 3  Xrotation Yrotation Zrotation
							JOINT head_ee
							{
								OFFSET	0	179.8	-8.7
								CHANNELS 3  Xrotation Yrotation Zrotation
								End Site
								{
									OFFSET	1	0	0
								}
							}
						}
					}
					JOINT left_clavicle
					{
						OFFSET	-43.2	22.4	-70.8
						CHANNELS 3  Xrotation Yrotation Zrotation
						JOINT left_shoulder
						{
							OFFSET	-93.9	-5.79999	48.7
							CHANNELS 3  Xrotation Yrotation Zrotation
							JOINT left_elbow
							{
								OFFSET	-291.4	-30.8	15.2
								CHANNELS 3  Xrotation Yrotation Zrotation
								JOINT left_lowarm_twist
								{
									OFFSET	-110.7	-3.89999	13.6
									CHANNELS 3  Xrotation Yrotation Zrotation
									JOINT left_hand
									{
										OFFSET	-110.7	-3.89999	13.6
										CHANNELS 3  Xrotation Yrotation Zrotation
										JOINT left_ee
										{
											OFFSET	-80.8	-5.10001	12.1
											CHANNELS 3  Xrotation Yrotation Zrotation
											End Site
											{
												OFFSET	1	0	0
											}
										}
									}
								}
							}
						}
					}
					JOINT right_clavicle
					{
						OFFSET	43.2	22.4	-70.8
						CHANNELS 3  Xrotation Yrotation Zrotation
						JOINT right_shoulder
						{
							OFFSET	93.9	-5.79999	48.7
							CHANNELS 3  Xrotation Yrotation Zrotation
							JOINT right_elbow
							{
								OFFSET	291.4	-30.8	15.2
								CHANNELS 3  Xrotation Yrotation Zrotation
								JOINT right_lowarm_twist
								{
									OFFSET	110.7	-3.89999	13.6
									CHANNELS 3  Xrotation Yrotation Zrotation
									JOINT right_hand
									{
										OFFSET	110.7	-3.89999	13.6
										CHANNELS 3  Xrotation Yrotation Zrotation
										JOINT right_ee
										{
											OFFSET	80.8	-5.10001	12.1
											CHANNELS 3  Xrotation Yrotation Zrotation
											End Site
											{
												OFFSET	1	0	0
											}
										}
									}
								}
							}
						}
					}
				}
			}
		}
	}
	JOINT left_hip
	{
		OFFSET	-82.8	-127.5	0.300001
		CHANNELS 3  Xrotation Yrotation Zrotation
		JOINT left_knee
		{
			OFFSET	-28.2	-396.7	2.2
			CHANNELS 3  Xrotation Yrotation Zrotation
			JOINT left_ankle
			{
				OFFSET	-11.7	-411.3	35.4
				CHANNELS 3  Xrotation Yrotation Zrotation
				JOINT left_toes
				{
					OFFSET	0	-60	-88.6
					CHANNELS 3  Xrotation Yrotation Zrotation
					JOINT left_foot_ee
					{
						OFFSET	-22.5	-16.5	-42.2
						CHANNELS 3  Xrotation Yrotation Zrotation
						End Site
						{
							OFFSET	1	0	0
						}
					}
				}
			}
		}
	}
	JOINT right_hip
	{
		OFFSET	82.8	-127.5	0.300001
		CHANNELS 3  Xrotation Yrotation Zrotation
		JOINT right_knee
		{
			OFFSET	28.2	-396.7	2.2
			CHANNELS 3  Xrotation Yrotation Zrotation
			JOINT right_ankle
			{
				OFFSET	11.7	-411.3	35.4
				CHANNELS 3  Xrotation Yrotation Zrotation
				JOINT right_toes
				{
					OFFSET	0	-60	-88.6
					CHANNELS 3  Xrotation Yrotation Zrotation
					JOINT right_foot_ee
					{
						OFFSET	22.5	-16.5	-42.2
						CHANNELS 3  Xrotation Yrotation Zrotation
						End Site
						{
							OFFSET	1	0	0
						}
					}
				}
			}
		}
	}
}
MOTION
Frames: 14
Frame Time: 0.02
1041.4 574.639 -1682.42 -26.2764232458 58.8248265425 21.9869778035 8.11646 0.405287 1.09876 8.11707 0.334554 1.12231 8.12247 0.255302 1.14295 8.12091 0.432595 1.08829 -16.6269 12.0286 -1.15825 -17.2571 23.7312 3.41805 -0.0 0.0 -0.0 -10.7777 22.7881 -12.7873 -33.5456 -27.9627 72.3691 1.07949 -28.1348 0.270503 -23.4191 -1.384 2.63438 4.19547 -0.995032 28.9233 -0.0 0.0 -0.0 10.5232 9.53484 -20.9857 -8.03487 44.0524 -59.0335 1.57595 37.9756 -0.542297 46.2114 0.711127 5.70255 3.69281 13.9767 -19.2053 0.0 0.0 0.0 31.3325 -1.69886 -6.66199 6.78191 -0.33806 -0.984826 0.860714 -4.01602 -0.128696 37.6724 -0.0 -0.0 -0.0 0.0 -0.0 -3.58222 29.8202 -0.861969 -0.297648 -0.0121416 -0.0440634 41.305 -16.0644 5.06562 17.2908 -0.0 -0.0 0.0 0.0 0.0 
1041.4 574.639 -1682.42 -26.6975972552 59.3311231716 22.477926874 8.11646 0.405287 1.09876 8.11707 0.334554 1.12231 8.12247 0.255302 1.14295 8.12091 0.432595 1.08829 -16.6269 12.0286 -1.15825 -17.2571 23.7312 3.41805 -0.0 0.0 -0.0 -10.7777 22.7881 -12.7873 -33.5456 -27.9627 72.3691 1.07949 -28.1348 0.270503 -23.4191 -1.384 2.63438 4.19547 -0.995032 28.9233 -0.0 0.0 -0.0 10.5232 9.53484 -20.9857 -8.03487 44.0524 -59.0335 1.57595 37.9756 -0.542297 46.2114 0.711127 5.70255 3.69281 13.9767 -19.2053 0.0 0.0 0.0 31.3325 -1.69886 -6.66199 6.78191 -0.33806 -0.984826 0.860714 -4.01602 -0.128696 37.6724 -0.0 -0.0 -0.0 0.0 -0.0 -3.58222 29.8202 -0.861969 -0.297648 -0.0121416 -0.0440634 41.305 -16.0644 5.06562 17.2908 -0.0 -0.0 0.0 0.0 0.0 
1041.4 574.639 -1682.42 -27.3009609569 60.0237404018 23.17689935 8.11646 0.405287 1.09876 8.11707 0.334554 1.12231 8.12247 0.255302 1.14295 8.12091 0.432595 1.08829 -16.6269 12.0286 -1.15825 -17.2571 23.7312 3.41805 -0.0 0.0 -0.0 -10.7777 22.7881 -12.7873 -33.5456 -27.9627 72.3691 1.07949 -28.1348 0.270503 -23.4191 -1.384 2.63438 4.19547 -0.995032 28.9233 -0.0 0.0 -0.0 10.5232 9.53484 -20.9857 -8.03487 44.0524 -59.0335 1.57595 37.9756 -0.542297 46.2114 0.711127 5.70255 3.69281 13.9767 -19.2053 0.0 0.0 0.0 31.3325 -1.69886 -6.66199 6.78191 -0.33806 -0.984826 0.860714 -4.01602 -0.128696 37.6724 -0.0 -0.0 -0.0 0.0 -0.0 -3.58222 29.8202 -0.861969 -0.297648 -0.0121416 -0.0440634 41.305 -16.0644 5.06562 17.2908 -0.0 -0.0 0.0 0.0 0.0 
1025.4274056 581.89 -1677.73501032 -26.5306278273 59.0287820308 22.6383024577 8.17039 0.343509 1.19874 8.17115 0.26654 1.21816 8.17542 0.181885 1.23365 8.17349 0.37442 1.18945 -17.8742 11.9781 -1.37408 -18.5921 23.7705 3.48253 -0.0 0.0 -0.0 -10.6475 22.0936 -12.8972 -32.2136 -29.1958 71.7497 1.16601 -30.0101 0.312552 -22.0634 -1.27531 2.4989 4.57919 -0.116957 32.2938 -0.0 0.0 -0.0 10.3663 9.08786 -20.6431 -10.0568 43.507 -59.3462 1.60874 38.5493 -0.562607 46.6217 0.737708 5.74783 4.09649 12.4717 -22.8513 0.0 0.0 0.0 29.7975 -2.16895 -6.7529 5.81159 -0.28256 -0.846423 -0.00338883 -5.53534 0.000511 38.6853 -0.0 -0.0 -0.0 0.0 -0.0 -4.21914 30.1139 -0.110018 -0.776569 -0.0311963 -0.11509 39.7876 -15.6291 4.9233 17.1821 -0.0 -0.0 0.0 0.0 0.0 
1012.8857409 586.167 -1673.06194314 -26.5218289519 58.8771199384 22.5004803097 8.25911 0.321651 1.30847 8.26003 0.237745 1.32628 8.26384 0.147764 1.3393 8.26151 0.357408 1.29916 -17.6688 11.5217 -1.82875 -18.3289 23.1395 2.81989 -0.0 0.0 -0.0 -10.7808 21.9147 -13.1842 -31.1937 -31.5322 70.5541 1.2877 -32.5318 0.375732 -21.8947 -1.26202 2.48187 4.90961 1.29988 35.571 -0.0 0.0 -0.0 10.2134 10.0166 -20.301 -11.2875 43.1005 -59.5041 1.62226 38.7831 -0.571054 46.499 0.729729 5.73432 4.2842 9.16793 -25.8702 0.0 0.0 0.0 29.4665 -2.2033 -6.02532 5.21744 -0.24974 -0.761228 -0.352507 -4.53493 0.0529799 39.0094 -0.0 -0.0 -0.0 0.0 -0.0 -4.08741 30.7544 0.299912 -1.59136 -0.0622454 -0.236277 38.2285 -21.0947 4.88683 16.9002 -0.0 -0.0 0.0 0.0 0.0 
983.001015925 588.691 -1679.46683914 -27.1664650581 60.1977045457 24.2200856705 8.35932 0.208457 1.45364 8.36049 0.115545 1.46395 8.36134 0.0190207 1.46838 8.35842 0.250661 1.44696 -17.3151 11.1316 -0.799333 -17.882 21.8248 3.53131 -0.0 0.0 -0.0 -9.76136 20.9899 -11.9875 -30.503 -32.576 67.5657 1.22063 -31.1585 0.34034 -22.3924 -1.3014 2.53202 5.20675 1.6875 38.2346 -0.0 0.0 -0.0 10.1011 8.48363 -20.0659 -13.6463 42.7871 -60.0617 1.64094 39.1037 -0.582795 47.8503 0.819247 5.88231 4.08376 5.45127 -26.1185 0.0 0.0 0.0 27.3085 -3.36405 -6.79699 3.97703 -0.184086 -0.582319 1.42191 -9.54687 -0.217909 40.1405 -0.0 -0.0 -0.0 0.0 -0.0 -3.35174 28.1198 -1.26671 -4.94612 -0.171813 -0.739403 38.3743 -18.6302 4.8464 16.2865 -0.0 -0.0 0.0 0.0 0.0 
966.421022422 593.567 -1681.30200118 -27.5891422258 61.3418659415 25.0679952926 8.33294 0.232194 1.59496 8.33435 0.130245 1.6065 8.33547 0.0235917 1.6116 8.33196 0.277785 1.58766 -17.9413 9.79552 -1.24487 -18.4146 19.5092 2.68597 -0.0 0.0 -0.0 -8.70021 20.717 -10.4456 -31.1271 -33.0721 65.0437 1.12203 -29.0652 0.290866 -23.2556 -1.37072 2.61818 5.15239 2.72308 38.2062 -0.0 0.0 -0.0 10.2028 9.19561 -20.2847 -15.7455 42.488 -60.2444 1.63927 39.0752 -0.581744 48.1584 0.840148 5.91576 4.36468 5.19566 -28.3652 0.0 0.0 0.0 26.7296 -3.76469 -7.11399 1.95787 -0.0855615 -0.288235 2.27865 -10.6663 -0.350634 40.0633 -0.0 -0.0 -0.0 0.0 -0.0 -3.04342 26.4185 -2.20854 -6.39107 -0.209887 -0.957878 39.4434 -21.2044 5.00571 16.3772 -0.0 -0.0 0.0 0.0 0.0 
954.899116301 597.746 -1679.13975317 -28.5027805401 61.7026555754 26.2400128676 8.40731 0.156312 1.40151 8.4084 0.0668221 1.40861 8.40808 -0.0248219 1.40998 8.40536 0.198147 1.39621 -16.6438 10.1253 -0.526592 -17.0704 19.727 3.24656 -0.0 0.0 -0.0 -8.2347 20.4363 -9.82944 -30.5532 -33.4379 63.8834 1.11598 -28.934 0.287936 -25.1414 -1.52668 2.80277 5.03528 3.83405 37.6614 -0.0 0.0 -0.0 10.1878 8.07271 -20.2552 -16.881 42.0781 -60.3392 1.61617 38.6779 -0.567242 48.3635 0.854163 5.93797 4.37674 3.95617 -29.0239 0.0 0.0 0.0 26.1365 -4.04835 -7.06079 1.88229 -0.0820758 -0.277162 4.42453 -12.7295 -0.685296 40.0799 -0.0 -0.0 -0.0 0.0 -0.0 -1.76415 25.4255 -2.70458 -7.96027 -0.244977 -1.19612 39.8824 -23.8727 5.12122 14.9651 -0.0 -0.0 0.0 0.0 0.0 
954.970945434 597.746 -1677.60529058 -29.434776993 62.5922555033 27.2940869314 8.40731 0.156312 1.40151 8.4084 0.0668221 1.40861 8.40808 -0.0248219 1.40998 8.40536 0.198147 1.39621 -16.6438 10.1253 -0.526592 -17.0704 19.727 3.24656 -0.0 0.0 -0.0 -8.2347 20.4363 -9.82944 -30.5532 -33.4379 63.8834 1.11598 -28.934 0.287936 -25.1414 -1.52668 2.80277 5.03528 3.83405 37.6614 -0.0 0.0 -0.0 10.1878 8.07271 -20.2552 -16.881 42.0781 -60.3392 1.61617 38.6779 -0.567242 48.3635 0.854163 5.93797 4.37674 3.95617 -29.0239 0.0 0.0 0.0 26.1365 -4.04835 -7.06079 1.88229 -0.0820758 -0.277162 4.42453 -12.7295 -0.685296 40.0799 -0.0 -0.0 -0.0 0.0 -0.0 -1.76415 25.4255 -2.70458 -7.96027 -0.244977 -1.19612 39.8824 -23.8727 5.12122 14.9651 -0.0 -0.0 0.0 0.0 0.0 
914.168383782 601.291 -1679.84422154 -27.6163634826 63.5581338166 26.528795618 8.24023 0.0843267 1.43907 8.24138 -0.00740606 1.44152 8.23921 -0.105293 1.43769 8.23635 0.12306 1.43627 -17.9715 11.2802 1.63977 -18.507 20.8089 5.97546 -0.0 0.0 -0.0 -8.52562 19.9932 -10.4409 -27.6451 -34.658 61.0355 1.35651 -33.8983 0.413427 -27.4356 -1.72449 3.02032 4.48356 5.98941 33.9365 -0.0 0.0 -0.0 9.89186 9.06473 -19.6075 -20.1076 41.0937 -62.608 1.52288 37.028 -0.509987 48.6139 0.871379 5.96501 4.37713 2.64541 -29.6123 0.0 0.0 0.0 22.3807 -3.83961 -6.93777 -0.135254 0.00554565 0.0200152 10.2328 -13.2653 -1.55799 39.739 -0.0 -0.0 -0.0 0.0 -0.0 2.70342 21.9092 -3.90738 -19.7151 -0.29892 -2.99577 39.4725 -26.6356 5.1722 17.285 -0.0 -0.0 0.0 0.0 0.0 
904.357135945 603.326 -1674.1064802 -27.3698610443 64.2543653614 26.0708559959 8.16929 0.111436 1.52633 8.17058 0.0140979 1.53033 8.16874 -0.0917452 1.52764 8.16552 0.15064 1.52296 -18.7864 11.4516 2.06623 -19.3677 20.9597 6.6074 -0.0 0.0 -0.0 -8.58405 19.0422 -10.8792 -26.0264 -35.2106 60.9665 1.46285 -35.9269 0.474302 -28.7611 -1.84272 3.14238 4.07326 7.26457 31.1628 -0.0 0.0 -0.0 9.7955 9.31574 -19.3955 -20.9616 41.4896 -63.6671 1.46628 35.9906 -0.476313 48.8061 0.884672 5.98571 4.55589 2.95988 -30.8662 0.0 0.0 0.0 21.1821 -3.67507 -6.1988 -0.322801 0.013157 0.0477899 13.0665 -14.141 -1.97814 39.6703 -0.0 -0.0 -0.0 0.0 -0.0 4.21846 21.0301 -3.35466 -23.0778 -0.246406 -3.50902 37.7563 -26.0538 4.98058 17.7057 -0.0 -0.0 0.0 0.0 0.0 
904.56923124 603.326 -1671.14161712 -28.607185197 65.349834901 27.438228503 8.16929 0.111436 1.52633 8.17058 0.0140979 1.53033 8.16874 -0.0917452 1.52764 8.16552 0.15064 1.52296 -18.7864 11.4516 2.06623 -19.3677 20.9597 6.6074 -0.0 0.0 -0.0 -8.58405 19.0422 -10.8792 -26.0264 -35.2106 60.9665 1.46285 -35.9269 0.474302 -28.7611 -1.84272 3.14238 4.07326 7.26457 31.1628 -0.0 0.0 -0.0 9.7955 9.31574 -19.3955 -20.9616 41.4896 -63.6671 1.46628 35.9906 -0.476313 48.8061 0.884672 5.98571 4.55589 2.95988 -30.8662 0.0 0.0 0.0 21.1821 -3.67507 -6.1988 -0.322801 0.013157 0.0477899 13.0665 -14.141 -1.97814 39.6703 -0.0 -0.0 -0.0 0.0 -0.0 4.21846 21.0301 -3.35466 -23.0778 -0.246406 -3.50902 37.7563 -26.0538 4.98058 17.7057 -0.0 -0.0 0.0 0.0 0.0 
894.130804067 604.534 -1662.36383563 -28.5194704672 66.7871130703 27.2842174465 8.08532 0.0917826 1.72799 8.08698 -0.018343 1.73033 8.08365 -0.140521 1.72471 8.07952 0.133586 1.72526 -19.8099 11.7605 1.94589 -20.4954 21.6726 6.85426 -0.0 0.0 -0.0 -8.65543 19.0054 -11.0067 -21.9341 -34.5754 61.5331 1.47612 -36.173 0.48211 -28.8883 -1.85421 3.15394 3.60382 7.44395 27.6732 -0.0 0.0 -0.0 8.96972 9.54102 -17.6045 -20.9352 42.1497 -65.1321 1.4184 35.0912 -0.448483 49.2394 0.914896 6.03222 4.50059 1.29587 -31.1661 0.0 0.0 0.0 19.8202 -3.12544 -4.62653 -0.376233 0.0153092 0.0557072 14.6268 -14.0086 -2.19712 39.9432 -0.0 -0.0 -0.0 0.0 -0.0 5.14155 22.57 -3.63915 -26.4522 -0.163524 -4.02014 37.5801 -26.1941 4.96724 18.2466 -0.0 -0.0 0.0 0.0 0.0 
882.888549837 605.663 -1653.76848927 -26.9296281043 67.0931048479 25.0108485702 7.94754 0.279943 1.9501 7.94965 0.15531 1.96396 7.95142 0.0117359 1.97005 7.94615 0.322662 1.94349 -21.4007 11.8424 2.37986 -22.1732 21.6936 7.6355 -0.0 0.0 -0.0 -8.5553 19.1064 -10.8101 -19.5581 -34.5281 61.7551 1.48119 -36.2666 0.485105 -30.9543 -2.04447 3.33826 2.90268 8.63378 23.0007 -0.0 0.0 -0.0 8.89128 9.82423 -17.4296 -21.7289 41.6226 -65.9973 1.38634 34.4776 -0.430192 49.8976 0.961488 6.10245 4.43068 1.04887 -30.7241 0.0 0.0 0.0 18.1591 -3.11242 -3.28505 -0.435281 0.0176783 0.0644591 16.7256 -14.6352 -2.49881 40.1482 -0.0 -0.0 -0.0 0.0 -0.0 6.10715 20.9941 -1.04423 -29.914 -0.0473522 -4.53865 36.0626 -26.8008 4.8295 18.188 -0.0 -0.0 0.0 0.0 0.0 
